<svg width="82" height="66" viewBox="0 0 82 66" fill="#ffff" xmlns="http://www.w3.org/2000/svg">
    <path
        d="M30.3332 65.9011C20.5583 64.7426 11.9347 59.8212 6.31435 52.2122C3.11639 47.8748 1.17575 43.1666 0.301092 37.6197C-0.10207 35.0988 -0.0986537 30.9096 0.301092 28.3655C1.52083 20.6545 5.19712 13.9074 10.9815 8.76366C24.1765 -2.9743 44.3892 -2.91406 57.4612 8.90268C59.1969 10.469 60.3175 11.7155 61.8892 13.8147C63.8708 16.47 65.2648 19.1068 66.734 22.9901C66.7886 23.1291 67.0585 23.3145 67.3353 23.3886C68.2578 23.6481 69.498 24.6305 70.4922 25.891C71.2644 26.8641 71.8623 27.93 73.3349 30.956C74.8211 34.0051 81.5485 48.0879 81.9585 49.0101C82.1156 49.3715 81.8013 49.9462 81.446 49.9462C81.1965 49.9462 81.0155 49.7145 80.6465 48.9267L76.8335 40.9006C70.3419 27.2673 69.99 26.6371 68.1826 25.409L67.2328 24.7603H64.4414C61.6534 24.7603 61.65 24.7649 61.5817 25.1634C61.2127 27.3414 61.1444 27.879 61.2264 27.9809C61.2776 28.0458 62.8595 29.2692 64.7455 30.6965L68.1689 33.3008L67.9571 33.9078C67.8375 34.2415 67.7043 34.5195 67.6565 34.5195C67.6086 34.5195 64.725 32.3508 61.2503 29.7048C57.7722 27.0634 54.7245 24.8205 54.4785 24.7278C53.4877 24.3571 51.9707 25.84 51.9707 27.1792C51.9707 28.5324 52.268 28.9309 58.3735 35.7105C62.183 39.946 64.3628 42.4854 64.6942 43.0878C65.3024 44.1814 65.914 45.7941 66.4811 47.7774C67.472 51.2715 69.088 53.2178 71.7359 54.1168L72.6071 54.4134L72.5354 55.0621C72.5151 55.3107 72.4727 55.555 72.409 55.7896C72.2962 55.9611 70.5401 55.2011 69.5254 54.5385C67.9366 53.5051 66.8433 52.0315 65.7705 49.4689C65.3033 49.6594 64.8417 49.8743 64.3867 50.113C63.0508 50.771 62.9859 50.8266 61.7218 52.4995C56.3372 59.6266 48.6156 64.1819 39.2882 65.7296C37.7746 65.9845 31.9425 66.0957 30.3332 65.9011ZM39.6162 63.7092C43.8938 62.9399 47.2114 61.7907 50.6861 59.863C54.3316 57.8379 57.7687 54.9277 60.174 51.8322L61.1204 50.6088L58.7356 49.0657C56.1868 47.4114 55.934 47.1379 55.6094 45.6597C55.4044 44.7329 55.6368 43.7366 56.2859 42.782L56.795 42.0359L55.688 40.8959C54.8134 39.9923 54.54 39.5984 54.3692 38.996C54.235 38.5274 54.1894 38.0207 54.2365 37.5222C54.2837 37.0236 54.4221 36.5489 54.6391 36.1414L54.9739 35.5019L51.4787 34.6678C50.1452 34.3658 48.817 34.0228 47.4949 33.6391C46.9722 33.4259 46.4358 32.6196 46.2991 31.8272C46.224 31.4008 47.9391 20.0568 48.3218 18.4349C48.4554 18.0175 48.6551 17.6451 48.9066 17.344C49.1581 17.0429 49.4553 16.8205 49.7772 16.6925C50.3547 16.5488 60.6592 19.0048 61.1717 19.4126C61.9849 20.0521 62.2411 21.0901 61.9849 22.6796L61.8755 23.3469H62.4461C62.7604 23.3469 63.5053 23.2913 64.0963 23.2311L65.176 23.1152L64.6396 21.7713C63.0201 17.6841 60.0955 13.5784 56.4807 10.3161C54.7929 8.7961 51.1951 6.39105 49.029 5.33912C45.6639 3.75749 42.175 2.70941 38.6322 2.2158C36.6677 1.93775 31.5188 1.93775 29.6123 2.22043C25.0375 2.897 20.8863 4.3011 17.2544 6.40031C8.84949 11.2614 3.19497 19.3107 1.74974 28.4907C1.37391 30.8865 1.33975 35.0849 1.68824 37.2675C2.45357 42.0869 4.1243 46.2621 6.84393 50.1501C12.3789 58.0603 20.8418 62.9214 30.9858 64.0243C32.3422 64.168 38.2325 63.9548 39.6162 63.7092ZM37.761 55.0714C37.2382 54.8675 36.7087 54.0195 36.5993 53.2178C36.5242 52.6895 36.613 52.328 37.1665 50.873C39.4078 44.9878 40.3815 39.5799 40.3815 33.0088C40.3815 26.6602 39.5205 21.725 37.3783 15.8027C36.9171 14.533 36.5412 13.3513 36.5412 13.1845C36.5412 12.5543 36.9307 11.6414 37.351 11.2846C37.9284 10.7887 38.8953 10.8814 39.36 11.4699C39.5376 11.7016 39.9989 12.7257 40.3849 13.7591C41.919 17.8371 42.9679 22.3182 43.4872 26.98C43.8084 29.867 43.8733 35.3351 43.6171 37.9765C43.1864 42.6573 42.1938 47.2109 40.6788 51.4568C39.7563 54.0287 39.1823 55.0899 38.6971 55.0899C38.5804 55.0939 38.4646 55.1172 38.3521 55.1594C38.1527 55.1862 37.9513 55.1562 37.761 55.0714ZM31.5222 50.6459C30.7227 50.3261 30.1419 48.9916 30.3742 47.9906C30.4323 47.7496 30.8081 46.6328 31.2147 45.5114C32.9299 40.7662 33.6439 35.6734 33.2954 30.6779C33.0084 26.5722 32.4652 23.9818 31.0986 20.1911C30.1795 17.6471 30.1385 17.2532 30.6715 16.2337C31.1771 15.2606 32.4447 15.0984 33.1075 15.9278C33.5688 16.5025 35.0038 20.5619 35.5538 22.8603C37.384 30.4811 37.1022 38.7455 34.7612 46.1046C33.5585 49.9323 32.7146 51.1139 31.5222 50.6459ZM25.0921 46.1555C24.8362 45.9871 24.6105 45.7446 24.4311 45.4452C24.2517 45.1458 24.1228 44.7967 24.0535 44.4224C23.9817 43.9868 24.1013 43.5049 24.6924 41.8876C26.8517 35.9561 26.8756 30.2377 24.7607 24.4405C23.8348 21.8918 23.8143 21.3867 24.6001 20.3811C24.9862 19.8853 25.1502 19.7973 25.6935 19.7973C26.6057 19.7973 27.0806 20.4228 27.8938 22.6935C29.1477 26.1876 29.6636 29.2182 29.6567 33.1015C29.6567 37.0868 29.175 39.8301 27.8357 43.5141C27.0669 45.6226 26.6877 46.1787 25.9224 46.3224C25.6398 46.3566 25.3553 46.2994 25.0921 46.1555ZM19.0891 41.9757C18.6249 41.6424 18.2745 41.0774 18.112 40.4001C17.965 39.6957 18.0846 39.135 18.6757 37.8189C19.4342 36.1275 19.6119 35.2239 19.6119 33.0088C19.6119 30.7984 19.4342 29.8901 18.6757 28.1987C18.4509 27.715 18.2588 27.2048 18.1017 26.6741C17.8591 25.562 18.5425 24.1949 19.4615 23.9586C20.2405 23.7593 20.7769 24.2366 21.4944 25.752C22.5109 27.9409 23.0503 30.4752 23.0503 33.0621C23.0503 35.6491 22.5109 38.1833 21.4944 40.3723C20.7598 41.9108 19.9433 42.4576 19.0891 41.9757ZM63.8127 48.8016C64.5063 48.4633 65.1077 48.1482 65.1452 48.0926C65.1862 48.0416 65.053 47.4392 64.848 46.7533C64.4312 45.3539 64.4995 45.3863 63.0235 45.7709C61.4245 46.188 60.4986 45.8173 58.7527 44.0749C58.2744 43.5976 57.7858 43.2083 57.6594 43.2083C57.5364 43.2083 57.2665 43.4539 57.0547 43.7597C56.6105 44.4085 56.5422 45.428 56.9043 46.0304C57.2221 46.5541 61.609 49.3854 62.1318 49.3993C62.3607 49.4086 63.1192 49.1398 63.8127 48.8016ZM63.1226 44.2463C63.7718 44.0702 63.8435 44.01 63.7308 43.7273C63.6077 43.4122 57.5398 36.5817 57.0137 36.1646C56.5798 35.8217 56.2278 35.9005 55.8691 36.4241C54.8134 37.9533 54.9364 38.2777 57.6662 41.1184C60.9599 44.5383 61.3084 44.7422 63.1226 44.2463ZM54.9774 33.9078C54.9774 33.8615 54.2906 33.0598 53.4467 32.1237C51.3694 29.8021 50.9252 28.9355 50.9252 27.2209C50.9252 25.7844 51.6291 24.4035 52.7634 23.6064C53.4337 23.1985 54.1851 23.1055 54.8988 23.3423C55.3019 23.5184 57.1127 24.8483 59.624 26.8085L60.1535 27.2209L60.5909 24.4127C61.035 21.5396 61.0453 20.7889 60.6319 20.6128C60.5055 20.5619 58.0831 19.9641 55.2507 19.2875C50.218 18.0827 49.6679 18.0132 49.4356 18.5275C49.3092 18.8056 47.3959 30.8355 47.3959 31.3499C47.3959 31.6047 47.4915 31.9245 47.6077 32.0542C47.7239 32.1886 49.357 32.6659 51.2361 33.12C54.8646 34.0051 54.9774 34.0283 54.9774 33.9078Z"
        fill="white" />
</svg>